<svg width="19" height="20" viewBox="0 0 19 20" fill="none" xmlns="http://www.w3.org/2000/svg">
<g opacity="0.2">
<path d="M1 8C1 7.73478 1.10536 7.48043 1.29289 7.29289C1.48043 7.10536 1.73478 7 2 7H18C18.2652 7 18.5196 7.10536 18.7071 7.29289C18.8946 7.48043 19 7.73478 19 8V19C19 19.2652 18.8946 19.5196 18.7071 19.7071C18.5196 19.8946 18.2652 20 18 20H2C1.73478 20 1.48043 19.8946 1.29289 19.7071C1.10536 19.5196 1 19.2652 1 19V8Z" fill="black"/>
<path fill-rule="evenodd" clip-rule="evenodd" d="M3 9V18H17V9H3ZM2 7C1.73478 7 1.48043 7.10536 1.29289 7.29289C1.10536 7.48043 1 7.73478 1 8V19C1 19.2652 1.10536 19.5196 1.29289 19.7071C1.48043 19.8946 1.73478 20 2 20H18C18.2652 20 18.5196 19.8946 18.7071 19.7071C18.8946 19.5196 19 19.2652 19 19V8C19 7.73478 18.8946 7.48043 18.7071 7.29289C18.5196 7.10536 18.2652 7 18 7H2Z" fill="black"/>
<path fill-rule="evenodd" clip-rule="evenodd" d="M11.414 3.82807C11.0389 3.45312 10.5303 3.24249 9.99996 3.24249C9.46963 3.24249 8.96101 3.45312 8.58596 3.82807L4.70696 7.70807C4.61405 7.80091 4.50376 7.87455 4.38239 7.92477C4.26103 7.97499 4.13095 8.00082 3.99961 8.00077C3.86826 8.00072 3.7382 7.9748 3.61687 7.9245C3.49554 7.87419 3.3853 7.80048 3.29246 7.70757C3.19961 7.61466 3.12598 7.50437 3.07576 7.383C3.02553 7.26163 2.99971 7.13156 2.99976 7.00021C2.9998 6.86886 3.02572 6.73881 3.07603 6.61748C3.12633 6.49615 3.20005 6.38591 3.29296 6.29307L7.17196 2.41407C7.92207 1.66418 8.9393 1.24292 9.99996 1.24292C11.0606 1.24292 12.0778 1.66418 12.828 2.41407L16.708 6.29307C16.8955 6.48071 17.0008 6.73515 17.0007 7.00042C17.0006 7.26569 16.8951 7.52006 16.7075 7.70757C16.5198 7.89507 16.2654 8.00036 16.0001 8.00027C15.7348 8.00017 15.4805 7.89471 15.293 7.70707L11.414 3.82807Z" fill="black"/>
</g>
<path fill-rule="evenodd" clip-rule="evenodd" d="M17 6.9231H1V17.9231H17V6.9231ZM1 5.9231C0.734784 5.9231 0.48043 6.02845 0.292893 6.21599C0.105357 6.40353 0 6.65788 0 6.9231V17.9231C0 18.1883 0.105357 18.4427 0.292893 18.6302C0.48043 18.8177 0.734784 18.9231 1 18.9231H17C17.2652 18.9231 17.5196 18.8177 17.7071 18.6302C17.8946 18.4427 18 18.1883 18 17.9231V6.9231C18 6.65788 17.8946 6.40353 17.7071 6.21599C17.5196 6.02845 17.2652 5.9231 17 5.9231H1Z" fill="white"/>
<path fill-rule="evenodd" clip-rule="evenodd" d="M4.9999 9.42301C4.9999 9.2904 5.05258 9.16323 5.14635 9.06946C5.24011 8.97569 5.36729 8.92301 5.4999 8.92301H12.4999C12.6325 8.92301 12.7597 8.97569 12.8535 9.06946C12.9472 9.16323 12.9999 9.2904 12.9999 9.42301C12.9999 9.55562 12.9472 9.6828 12.8535 9.77657C12.7597 9.87033 12.6325 9.92301 12.4999 9.92301H5.4999C5.36729 9.92301 5.24011 9.87033 5.14635 9.77657C5.05258 9.6828 4.9999 9.55562 4.9999 9.42301ZM3.9999 12.423C3.9999 12.2904 4.05258 12.1632 4.14635 12.0695C4.24011 11.9757 4.36729 11.923 4.4999 11.923H13.4999C13.6325 11.923 13.7597 11.9757 13.8535 12.0695C13.9472 12.1632 13.9999 12.2904 13.9999 12.423C13.9999 12.5556 13.9472 12.6828 13.8535 12.7766C13.7597 12.8703 13.6325 12.923 13.4999 12.923H4.4999C4.36729 12.923 4.24011 12.8703 4.14635 12.7766C4.05258 12.6828 3.9999 12.5556 3.9999 12.423ZM4.9999 15.423C4.9999 15.2904 5.05258 15.1632 5.14635 15.0695C5.24011 14.9757 5.36729 14.923 5.4999 14.923H12.4999C12.6325 14.923 12.7597 14.9757 12.8535 15.0695C12.9472 15.1632 12.9999 15.2904 12.9999 15.423C12.9999 15.5556 12.9472 15.6828 12.8535 15.7766C12.7597 15.8703 12.6325 15.923 12.4999 15.923H5.4999C5.36729 15.923 5.24011 15.8703 5.14635 15.7766C5.05258 15.6828 4.9999 15.5556 4.9999 15.423ZM10.7679 2.39801C10.5357 2.1658 10.2601 1.98159 9.95676 1.85591C9.6534 1.73023 9.32826 1.66555 8.9999 1.66555C8.67154 1.66555 8.3464 1.73023 8.04304 1.85591C7.73968 1.98159 7.46405 2.1658 7.2319 2.39801L3.3539 6.27701C3.26001 6.3709 3.13267 6.42364 2.9999 6.42364C2.86712 6.42364 2.73979 6.3709 2.6459 6.27701C2.55201 6.18313 2.49927 6.05579 2.49927 5.92301C2.49927 5.85727 2.51222 5.79217 2.53738 5.73143C2.56254 5.67069 2.59941 5.6155 2.6459 5.56901L6.5259 1.69101C7.18225 1.03486 8.07232 0.66626 9.0004 0.66626C9.92847 0.66626 10.8186 1.03486 11.4749 1.69101L15.3539 5.57001C15.4003 5.6165 15.4371 5.67168 15.4622 5.73239C15.4873 5.79311 15.5002 5.85817 15.5002 5.92387C15.5001 5.98956 15.4871 6.05461 15.462 6.11529C15.4368 6.17597 15.3999 6.23109 15.3534 6.27751C15.3069 6.32393 15.2517 6.36075 15.191 6.38584C15.1303 6.41094 15.0652 6.42384 14.9995 6.42379C14.9338 6.42374 14.8688 6.41076 14.8081 6.38557C14.7474 6.36039 14.6923 6.3235 14.6459 6.27701L10.7679 2.39801Z" fill="white"/>
</svg>
