<svg width="18" height="16" viewBox="0 0 18 16" fill="none" xmlns="http://www.w3.org/2000/svg">
<path d="M15.4999 8.0002H7.4249M13.7999 10.5502L16.3499 8.0002L13.7999 5.4502M9.5499 3.7502V2.9002C9.5499 2.44933 9.3708 2.01693 9.05198 1.69811C8.73317 1.3793 8.30077 1.2002 7.8499 1.2002H3.5999C3.14903 1.2002 2.71663 1.3793 2.39782 1.69811C2.07901 2.01693 1.8999 2.44933 1.8999 2.9002V13.1002C1.8999 13.5511 2.07901 13.9835 2.39782 14.3023C2.71663 14.6211 3.14903 14.8002 3.5999 14.8002H7.8499C8.30077 14.8002 8.73317 14.6211 9.05198 14.3023C9.3708 13.9835 9.5499 13.5511 9.5499 13.1002V12.2502" stroke="white" stroke-width="2" stroke-linecap="round" stroke-linejoin="round"/>
</svg>
