<svg width="21" height="19" viewBox="0 0 21 19" fill="none" xmlns="http://www.w3.org/2000/svg">
<path d="M5.83333 14.7778C6.16389 14.7778 6.44117 14.6764 6.66517 14.4738C6.88917 14.2711 7.00078 14.0206 7 13.7222C7 13.4231 6.888 13.1726 6.664 12.9707C6.44 12.7687 6.16311 12.6674 5.83333 12.6667C5.50278 12.6667 5.22589 12.768 5.00267 12.9707C4.77944 13.1733 4.66744 13.4239 4.66667 13.7222C4.66667 14.0213 4.77867 14.2722 5.00267 14.4748C5.22667 14.6775 5.50355 14.7785 5.83333 14.7778ZM5.83333 10.5556C6.16389 10.5556 6.44117 10.4542 6.66517 10.2516C6.88917 10.0489 7.00078 9.79837 7 9.5C7 9.20092 6.888 8.95041 6.664 8.74844C6.44 8.54648 6.16311 8.44515 5.83333 8.44444C5.50278 8.44444 5.22589 8.54578 5.00267 8.74844C4.77944 8.95111 4.66744 9.20163 4.66667 9.5C4.66667 9.79907 4.77867 10.0499 5.00267 10.2526C5.22667 10.4553 5.50355 10.5563 5.83333 10.5556ZM5.83333 6.33333C6.16389 6.33333 6.44117 6.232 6.66517 6.02933C6.88917 5.82667 7.00078 5.57615 7 5.27778C7 4.9787 6.888 4.72818 6.664 4.52622C6.44 4.32426 6.16311 4.22293 5.83333 4.22222C5.50278 4.22222 5.22589 4.32356 5.00267 4.52622C4.77944 4.72889 4.66744 4.97941 4.66667 5.27778C4.66667 5.57685 4.77867 5.82772 5.00267 6.03039C5.22667 6.23306 5.50355 6.33404 5.83333 6.33333ZM9.33333 14.7778H16.3333V12.6667H9.33333V14.7778ZM9.33333 10.5556H16.3333V8.44444H9.33333V10.5556ZM9.33333 6.33333H16.3333V4.22222H9.33333V6.33333ZM2.33333 19C1.69167 19 1.14256 18.7935 0.686 18.3804C0.229444 17.9673 0.000777778 17.4701 0 16.8889V2.11111C0 1.53056 0.228667 1.03374 0.686 0.620667C1.14333 0.207593 1.69244 0.000703704 2.33333 0H18.6667C19.3083 0 19.8578 0.206889 20.3152 0.620667C20.7725 1.03444 21.0008 1.53126 21 2.11111V16.8889C21 17.4694 20.7717 17.9666 20.3152 18.3804C19.8586 18.7942 19.3091 19.0007 18.6667 19H2.33333ZM2.33333 16.8889H18.6667V2.11111H2.33333V16.8889Z" fill="#D9D9D9"/>
</svg>
