<svg width="20" height="20" viewBox="0 0 20 20" fill="none" xmlns="http://www.w3.org/2000/svg">
<path d="M13.9293 10.5203C13.569 10.8186 13.2606 11.1516 13.0042 11.5193C12.429 11.2279 11.8295 11.0128 11.2058 10.8741C10.5821 10.7353 9.94456 10.6625 9.29314 10.6556C8.5447 10.6556 7.83091 10.7492 7.15177 10.9365C6.47263 11.1238 5.83507 11.3874 5.23909 11.7274C4.6431 12.0673 4.10949 12.4801 3.63825 12.9657C3.16701 13.4513 2.75468 13.9889 2.40125 14.5786C2.04782 15.1682 1.78448 15.8099 1.61123 16.5036C1.43798 17.1974 1.34442 17.9119 1.33056 18.6472H0C0 17.6344 0.148995 16.6597 0.446985 15.7232C0.744976 14.7867 1.17464 13.9299 1.73597 13.153C2.2973 12.376 2.96604 11.6961 3.7422 11.1134C4.51836 10.5307 5.39848 10.0832 6.38254 9.77107C6.00832 9.52133 5.67568 9.23344 5.38461 8.90739C5.09355 8.58134 4.84407 8.22754 4.63617 7.84599C4.42827 7.46445 4.26888 7.06209 4.158 6.63892C4.04712 6.21575 3.99168 5.7787 3.99168 5.32778C3.99168 4.59244 4.13028 3.90219 4.40748 3.25702C4.68468 2.61186 5.06583 2.04995 5.55094 1.57128C6.03604 1.09261 6.60083 0.711065 7.24532 0.426639C7.88981 0.142213 8.57935 0 9.31393 0C10.0485 0 10.738 0.138744 11.3825 0.416233C12.027 0.693722 12.5884 1.07527 13.0665 1.56087C13.5447 2.04648 13.9258 2.61186 14.21 3.25702C14.4941 3.90219 14.6362 4.59244 14.6362 5.32778C14.6362 5.7787 14.5807 6.21575 14.4699 6.63892C14.359 7.06209 14.203 7.46792 14.0021 7.8564C13.8011 8.24488 13.5482 8.59868 13.2432 8.91779C12.9383 9.23691 12.6022 9.5248 12.2349 9.78148C12.5329 9.8786 12.8205 9.98613 13.0977 10.1041C13.3749 10.222 13.6521 10.3607 13.9293 10.5203ZM5.32225 5.32778C5.32225 5.88276 5.4262 6.39958 5.6341 6.87825C5.842 7.35692 6.12613 7.78009 6.48649 8.14776C6.84685 8.51544 7.26958 8.80333 7.75468 9.01145C8.23978 9.21956 8.75953 9.32362 9.31393 9.32362C9.8614 9.32362 10.3777 9.21956 10.8628 9.01145C11.3479 8.80333 11.7706 8.5189 12.131 8.15817C12.4913 7.79743 12.7789 7.37426 12.9938 6.88866C13.2086 6.40305 13.3125 5.88276 13.3056 5.32778C13.3056 4.77974 13.2017 4.26292 12.9938 3.77732C12.7859 3.29171 12.5017 2.86854 12.1414 2.5078C11.781 2.14707 11.3548 1.85917 10.8628 1.64412C10.3708 1.42907 9.85447 1.32501 9.31393 1.33195C8.75953 1.33195 8.24324 1.436 7.76507 1.64412C7.2869 1.85224 6.86417 2.13666 6.49688 2.4974C6.12959 2.85813 5.842 3.28477 5.6341 3.77732C5.4262 4.26986 5.32225 4.78668 5.32225 5.32778ZM16.6528 10.6452C17.1102 10.6452 17.5433 10.7319 17.9522 10.9053C18.3611 11.0787 18.7145 11.3181 19.0125 11.6233C19.3105 11.9285 19.5495 12.2823 19.7297 12.6847C19.9099 13.0871 20 13.5206 20 13.9854C20 14.4433 19.9134 14.8734 19.7401 15.2758C19.5669 15.6781 19.3278 16.0319 19.0229 16.3371C18.7179 16.6424 18.3611 16.8817 17.9522 17.0552C17.5433 17.2286 17.1102 17.3188 16.6528 17.3257C15.9806 17.3257 15.3673 17.1384 14.8129 16.7638L11.7775 19.8023C11.6459 19.9341 11.49 20 11.3098 20C11.1296 20 10.9737 19.9341 10.842 19.8023C10.7103 19.6705 10.6445 19.5144 10.6445 19.334C10.6445 19.1537 10.7103 18.9976 10.842 18.8658L13.8773 15.8273C13.5031 15.2723 13.316 14.6583 13.316 13.9854C13.316 13.5276 13.4026 13.0975 13.5759 12.6951C13.7491 12.2928 13.9882 11.939 14.2931 11.6337C14.5981 11.3285 14.9515 11.0891 15.3534 10.9157C15.7554 10.7423 16.1885 10.6521 16.6528 10.6452ZM16.6528 15.9938C16.93 15.9938 17.1899 15.9417 17.4324 15.8377C17.675 15.7336 17.8863 15.5914 18.0665 15.411C18.2467 15.2307 18.3922 15.0156 18.5031 14.7659C18.614 14.5161 18.6694 14.256 18.6694 13.9854C18.6694 13.7079 18.6175 13.4478 18.5135 13.205C18.4096 12.9622 18.264 12.7506 18.0769 12.5702C17.8898 12.3899 17.6784 12.2442 17.4428 12.1332C17.2072 12.0222 16.9439 11.9702 16.6528 11.9771C16.3756 11.9771 16.1157 12.0291 15.8732 12.1332C15.6306 12.2373 15.4193 12.3829 15.2391 12.5702C15.0589 12.7575 14.9134 12.9691 14.8025 13.205C14.6916 13.4409 14.6396 13.701 14.6466 13.9854C14.6466 14.2629 14.6985 14.5231 14.8025 14.7659C14.9064 15.0087 15.0485 15.2203 15.2287 15.4006C15.4089 15.581 15.6237 15.7267 15.8732 15.8377C16.1227 15.9487 16.3825 16.0007 16.6528 15.9938Z" fill="#B9B9B9"/>
</svg>
